# xmcd
#
# Track frame offsets:
#	150
#	11995
#	25690
#	34985
#	44375
#	53687
#	63857
#	73472
#	83242
#	94812
#
# Disc length: 1387 seconds
#
# Revision: 0
# Processed by: cddbd v1.5.1PL0 Copyright (c) Steve Scherf et al.
# Submitted via: EasyCDDAExtractor 4.6.9.1
#
DISCID=8505690a
DTITLE=The Stanley Brothers - Don't Cheat In Our Home Town
DYEAR=1997
DGENRE=Bluegrass
TTITLE0=Don't Cheat In Our Home Town
TTITLE1=Another Night
TTITLE2=Ridin' That Midnight Train
TTITLE3=Let Me Love You One More Time
TTITLE4=Highway Of Redret
TTITLE5=Love Me Darlin', Just Tonight
TTITLE6=Think Of What You've Done
TTITLE7=If I Lose
TTITLE8=Choo Chooo Coming
TTITLE9=God Gave You To Me
EXTD=
EXTT0=
EXTT1=
EXTT2=
EXTT3=
EXTT4=
EXTT5=
EXTT6=
EXTT7=
EXTT8=
EXTT9=
PLAYORDER=
